<mxfile host="app.diagrams.net" agent="Mozilla/5.0 (Windows NT 10.0; Win64; x64) AppleWebKit/537.36 (KHTML, like Gecko) Chrome/133.0.0.0 Safari/537.36" version="26.0.15">
  <diagram name="Page-1" id="roHi4zyF9zxRVfl3gYuZ">
    <mxGraphModel dx="934" dy="525" grid="1" gridSize="10" guides="1" tooltips="1" connect="1" arrows="1" fold="1" page="1" pageScale="1" pageWidth="827" pageHeight="1169" math="0" shadow="0">
      <root>
        <mxCell id="0" />
        <mxCell id="1" parent="0" />
        <mxCell id="fmsvRbr4pzbcuX7kDeb8-1" value="start" style="ellipse;whiteSpace=wrap;html=1;fillColor=#f8cecc;strokeColor=#b85450;" vertex="1" parent="1">
          <mxGeometry x="300" y="20" width="80" height="30" as="geometry" />
        </mxCell>
        <mxCell id="fmsvRbr4pzbcuX7kDeb8-22" style="edgeStyle=orthogonalEdgeStyle;rounded=0;orthogonalLoop=1;jettySize=auto;html=1;exitX=0.5;exitY=1;exitDx=0;exitDy=0;entryX=0.5;entryY=0;entryDx=0;entryDy=0;" edge="1" parent="1" source="fmsvRbr4pzbcuX7kDeb8-16" target="fmsvRbr4pzbcuX7kDeb8-17">
          <mxGeometry relative="1" as="geometry" />
        </mxCell>
        <mxCell id="fmsvRbr4pzbcuX7kDeb8-16" value="Read Num1" style="shape=parallelogram;perimeter=parallelogramPerimeter;whiteSpace=wrap;html=1;fixedSize=1;fillColor=#d5e8d4;strokeColor=#82b366;" vertex="1" parent="1">
          <mxGeometry x="275" y="70" width="160" height="20" as="geometry" />
        </mxCell>
        <mxCell id="fmsvRbr4pzbcuX7kDeb8-23" style="edgeStyle=orthogonalEdgeStyle;rounded=0;orthogonalLoop=1;jettySize=auto;html=1;exitX=0.5;exitY=1;exitDx=0;exitDy=0;entryX=0.5;entryY=0;entryDx=0;entryDy=0;" edge="1" parent="1" source="fmsvRbr4pzbcuX7kDeb8-17" target="fmsvRbr4pzbcuX7kDeb8-18">
          <mxGeometry relative="1" as="geometry" />
        </mxCell>
        <mxCell id="fmsvRbr4pzbcuX7kDeb8-43" style="edgeStyle=orthogonalEdgeStyle;rounded=0;orthogonalLoop=1;jettySize=auto;html=1;exitX=1;exitY=0.5;exitDx=0;exitDy=0;entryX=0.75;entryY=1;entryDx=0;entryDy=0;" edge="1" parent="1" source="fmsvRbr4pzbcuX7kDeb8-17" target="fmsvRbr4pzbcuX7kDeb8-16">
          <mxGeometry relative="1" as="geometry" />
        </mxCell>
        <mxCell id="fmsvRbr4pzbcuX7kDeb8-17" value="if Num1 = integer" style="rhombus;whiteSpace=wrap;html=1;fillColor=#dae8fc;strokeColor=#6c8ebf;" vertex="1" parent="1">
          <mxGeometry x="300" y="110" width="80" height="60" as="geometry" />
        </mxCell>
        <mxCell id="fmsvRbr4pzbcuX7kDeb8-25" style="edgeStyle=orthogonalEdgeStyle;rounded=0;orthogonalLoop=1;jettySize=auto;html=1;exitX=0.5;exitY=1;exitDx=0;exitDy=0;entryX=0.5;entryY=0;entryDx=0;entryDy=0;" edge="1" parent="1" source="fmsvRbr4pzbcuX7kDeb8-18" target="fmsvRbr4pzbcuX7kDeb8-19">
          <mxGeometry relative="1" as="geometry" />
        </mxCell>
        <mxCell id="fmsvRbr4pzbcuX7kDeb8-18" value="Read Num2" style="shape=parallelogram;perimeter=parallelogramPerimeter;whiteSpace=wrap;html=1;fixedSize=1;fillColor=#d5e8d4;strokeColor=#82b366;" vertex="1" parent="1">
          <mxGeometry x="260" y="190" width="160" height="20" as="geometry" />
        </mxCell>
        <mxCell id="fmsvRbr4pzbcuX7kDeb8-26" style="edgeStyle=orthogonalEdgeStyle;rounded=0;orthogonalLoop=1;jettySize=auto;html=1;exitX=0.5;exitY=1;exitDx=0;exitDy=0;entryX=0.5;entryY=0;entryDx=0;entryDy=0;" edge="1" parent="1" source="fmsvRbr4pzbcuX7kDeb8-19" target="fmsvRbr4pzbcuX7kDeb8-20">
          <mxGeometry relative="1" as="geometry" />
        </mxCell>
        <mxCell id="fmsvRbr4pzbcuX7kDeb8-48" style="edgeStyle=orthogonalEdgeStyle;rounded=0;orthogonalLoop=1;jettySize=auto;html=1;exitX=1;exitY=0.5;exitDx=0;exitDy=0;entryX=1;entryY=1;entryDx=0;entryDy=0;" edge="1" parent="1" source="fmsvRbr4pzbcuX7kDeb8-19" target="fmsvRbr4pzbcuX7kDeb8-18">
          <mxGeometry relative="1" as="geometry" />
        </mxCell>
        <mxCell id="fmsvRbr4pzbcuX7kDeb8-19" value="if Num2 = Integer" style="rhombus;whiteSpace=wrap;html=1;fillColor=#dae8fc;strokeColor=#6c8ebf;" vertex="1" parent="1">
          <mxGeometry x="300" y="220" width="70" height="70" as="geometry" />
        </mxCell>
        <mxCell id="fmsvRbr4pzbcuX7kDeb8-30" style="edgeStyle=orthogonalEdgeStyle;rounded=0;orthogonalLoop=1;jettySize=auto;html=1;exitX=0.5;exitY=1;exitDx=0;exitDy=0;entryX=0.5;entryY=0;entryDx=0;entryDy=0;" edge="1" parent="1" source="fmsvRbr4pzbcuX7kDeb8-20" target="fmsvRbr4pzbcuX7kDeb8-21">
          <mxGeometry relative="1" as="geometry" />
        </mxCell>
        <mxCell id="fmsvRbr4pzbcuX7kDeb8-20" value="Read Num3" style="shape=parallelogram;perimeter=parallelogramPerimeter;whiteSpace=wrap;html=1;fixedSize=1;fillColor=#d5e8d4;strokeColor=#82b366;" vertex="1" parent="1">
          <mxGeometry x="265" y="310" width="140" height="20" as="geometry" />
        </mxCell>
        <mxCell id="fmsvRbr4pzbcuX7kDeb8-49" style="edgeStyle=orthogonalEdgeStyle;rounded=0;orthogonalLoop=1;jettySize=auto;html=1;exitX=1;exitY=0.5;exitDx=0;exitDy=0;entryX=1;entryY=1;entryDx=0;entryDy=0;" edge="1" parent="1" source="fmsvRbr4pzbcuX7kDeb8-21" target="fmsvRbr4pzbcuX7kDeb8-20">
          <mxGeometry relative="1" as="geometry">
            <Array as="points">
              <mxPoint x="390" y="395" />
              <mxPoint x="390" y="350" />
              <mxPoint x="388" y="350" />
            </Array>
          </mxGeometry>
        </mxCell>
        <mxCell id="fmsvRbr4pzbcuX7kDeb8-65" style="edgeStyle=orthogonalEdgeStyle;rounded=0;orthogonalLoop=1;jettySize=auto;html=1;exitX=0.5;exitY=1;exitDx=0;exitDy=0;entryX=0.5;entryY=0;entryDx=0;entryDy=0;" edge="1" parent="1" source="fmsvRbr4pzbcuX7kDeb8-21" target="fmsvRbr4pzbcuX7kDeb8-53">
          <mxGeometry relative="1" as="geometry" />
        </mxCell>
        <mxCell id="fmsvRbr4pzbcuX7kDeb8-21" value="if Num3 = Integer" style="rhombus;whiteSpace=wrap;html=1;fillColor=#dae8fc;strokeColor=#6c8ebf;" vertex="1" parent="1">
          <mxGeometry x="300" y="360" width="70" height="70" as="geometry" />
        </mxCell>
        <mxCell id="fmsvRbr4pzbcuX7kDeb8-27" value="yes" style="text;html=1;align=center;verticalAlign=middle;whiteSpace=wrap;rounded=0;" vertex="1" parent="1">
          <mxGeometry x="330" y="160" width="60" height="30" as="geometry" />
        </mxCell>
        <mxCell id="fmsvRbr4pzbcuX7kDeb8-28" value="yes" style="text;html=1;align=center;verticalAlign=middle;whiteSpace=wrap;rounded=0;" vertex="1" parent="1">
          <mxGeometry x="345" y="410" width="60" height="30" as="geometry" />
        </mxCell>
        <mxCell id="fmsvRbr4pzbcuX7kDeb8-29" value="yes" style="text;html=1;align=center;verticalAlign=middle;whiteSpace=wrap;rounded=0;" vertex="1" parent="1">
          <mxGeometry x="325" y="280" width="60" height="30" as="geometry" />
        </mxCell>
        <mxCell id="fmsvRbr4pzbcuX7kDeb8-42" style="edgeStyle=orthogonalEdgeStyle;rounded=0;orthogonalLoop=1;jettySize=auto;html=1;exitX=0.5;exitY=1;exitDx=0;exitDy=0;entryX=0.419;entryY=-0.1;entryDx=0;entryDy=0;entryPerimeter=0;" edge="1" parent="1" source="fmsvRbr4pzbcuX7kDeb8-1" target="fmsvRbr4pzbcuX7kDeb8-16">
          <mxGeometry relative="1" as="geometry" />
        </mxCell>
        <mxCell id="fmsvRbr4pzbcuX7kDeb8-44" value="NO" style="text;html=1;align=center;verticalAlign=middle;whiteSpace=wrap;rounded=0;" vertex="1" parent="1">
          <mxGeometry x="390" y="100" width="60" height="30" as="geometry" />
        </mxCell>
        <mxCell id="fmsvRbr4pzbcuX7kDeb8-50" value="NO" style="text;html=1;align=center;verticalAlign=middle;whiteSpace=wrap;rounded=0;" vertex="1" parent="1">
          <mxGeometry x="390" y="220" width="60" height="30" as="geometry" />
        </mxCell>
        <mxCell id="fmsvRbr4pzbcuX7kDeb8-52" value="NO" style="text;html=1;align=center;verticalAlign=middle;whiteSpace=wrap;rounded=0;" vertex="1" parent="1">
          <mxGeometry x="390" y="340" width="60" height="30" as="geometry" />
        </mxCell>
        <mxCell id="fmsvRbr4pzbcuX7kDeb8-63" style="edgeStyle=orthogonalEdgeStyle;rounded=0;orthogonalLoop=1;jettySize=auto;html=1;exitX=0;exitY=0.5;exitDx=0;exitDy=0;entryX=0.5;entryY=0;entryDx=0;entryDy=0;" edge="1" parent="1" source="fmsvRbr4pzbcuX7kDeb8-53" target="fmsvRbr4pzbcuX7kDeb8-54">
          <mxGeometry relative="1" as="geometry" />
        </mxCell>
        <mxCell id="fmsvRbr4pzbcuX7kDeb8-64" style="edgeStyle=orthogonalEdgeStyle;rounded=0;orthogonalLoop=1;jettySize=auto;html=1;exitX=1;exitY=0.5;exitDx=0;exitDy=0;entryX=0.5;entryY=0;entryDx=0;entryDy=0;" edge="1" parent="1" source="fmsvRbr4pzbcuX7kDeb8-53" target="fmsvRbr4pzbcuX7kDeb8-55">
          <mxGeometry relative="1" as="geometry" />
        </mxCell>
        <mxCell id="fmsvRbr4pzbcuX7kDeb8-53" value="if Num1 &amp;gt; Num2" style="rhombus;whiteSpace=wrap;html=1;fillColor=#dae8fc;strokeColor=#6c8ebf;" vertex="1" parent="1">
          <mxGeometry x="295" y="470" width="80" height="80" as="geometry" />
        </mxCell>
        <mxCell id="fmsvRbr4pzbcuX7kDeb8-66" style="edgeStyle=orthogonalEdgeStyle;rounded=0;orthogonalLoop=1;jettySize=auto;html=1;exitX=1;exitY=0.5;exitDx=0;exitDy=0;" edge="1" parent="1" source="fmsvRbr4pzbcuX7kDeb8-54">
          <mxGeometry relative="1" as="geometry">
            <mxPoint x="319.9999999999998" y="700" as="targetPoint" />
          </mxGeometry>
        </mxCell>
        <mxCell id="fmsvRbr4pzbcuX7kDeb8-54" value="if Num1 &amp;gt; Num3" style="rhombus;whiteSpace=wrap;html=1;fillColor=#dae8fc;strokeColor=#6c8ebf;" vertex="1" parent="1">
          <mxGeometry x="170" y="585" width="80" height="80" as="geometry" />
        </mxCell>
        <mxCell id="fmsvRbr4pzbcuX7kDeb8-60" style="edgeStyle=orthogonalEdgeStyle;rounded=0;orthogonalLoop=1;jettySize=auto;html=1;entryX=0.5;entryY=0;entryDx=0;entryDy=0;" edge="1" parent="1" source="fmsvRbr4pzbcuX7kDeb8-55" target="fmsvRbr4pzbcuX7kDeb8-58">
          <mxGeometry relative="1" as="geometry" />
        </mxCell>
        <mxCell id="fmsvRbr4pzbcuX7kDeb8-61" style="edgeStyle=orthogonalEdgeStyle;rounded=0;orthogonalLoop=1;jettySize=auto;html=1;exitX=0;exitY=0.5;exitDx=0;exitDy=0;entryX=0.5;entryY=0;entryDx=0;entryDy=0;" edge="1" parent="1" source="fmsvRbr4pzbcuX7kDeb8-55" target="fmsvRbr4pzbcuX7kDeb8-57">
          <mxGeometry relative="1" as="geometry" />
        </mxCell>
        <mxCell id="fmsvRbr4pzbcuX7kDeb8-55" value="if Num2 &amp;gt; Num3" style="rhombus;whiteSpace=wrap;html=1;fillColor=#dae8fc;strokeColor=#6c8ebf;" vertex="1" parent="1">
          <mxGeometry x="405" y="585" width="80" height="80" as="geometry" />
        </mxCell>
        <mxCell id="fmsvRbr4pzbcuX7kDeb8-68" style="edgeStyle=orthogonalEdgeStyle;rounded=0;orthogonalLoop=1;jettySize=auto;html=1;" edge="1" parent="1" source="fmsvRbr4pzbcuX7kDeb8-56" target="fmsvRbr4pzbcuX7kDeb8-59">
          <mxGeometry relative="1" as="geometry" />
        </mxCell>
        <mxCell id="fmsvRbr4pzbcuX7kDeb8-56" value="Print a" style="shape=parallelogram;perimeter=parallelogramPerimeter;whiteSpace=wrap;html=1;fixedSize=1;fillColor=#d5e8d4;strokeColor=#82b366;" vertex="1" parent="1">
          <mxGeometry x="90" y="710" width="120" height="30" as="geometry" />
        </mxCell>
        <mxCell id="fmsvRbr4pzbcuX7kDeb8-69" style="edgeStyle=orthogonalEdgeStyle;rounded=0;orthogonalLoop=1;jettySize=auto;html=1;exitX=0.5;exitY=1;exitDx=0;exitDy=0;" edge="1" parent="1" source="fmsvRbr4pzbcuX7kDeb8-57">
          <mxGeometry relative="1" as="geometry">
            <mxPoint x="320.11764705882365" y="810" as="targetPoint" />
          </mxGeometry>
        </mxCell>
        <mxCell id="fmsvRbr4pzbcuX7kDeb8-57" value="Print b" style="shape=parallelogram;perimeter=parallelogramPerimeter;whiteSpace=wrap;html=1;fixedSize=1;fillColor=#d5e8d4;strokeColor=#82b366;" vertex="1" parent="1">
          <mxGeometry x="260" y="680" width="120" height="20" as="geometry" />
        </mxCell>
        <mxCell id="fmsvRbr4pzbcuX7kDeb8-70" style="edgeStyle=orthogonalEdgeStyle;rounded=0;orthogonalLoop=1;jettySize=auto;html=1;" edge="1" parent="1" source="fmsvRbr4pzbcuX7kDeb8-58">
          <mxGeometry relative="1" as="geometry">
            <mxPoint x="319.9999999999998" y="800" as="targetPoint" />
          </mxGeometry>
        </mxCell>
        <mxCell id="fmsvRbr4pzbcuX7kDeb8-58" value="Print c" style="shape=parallelogram;perimeter=parallelogramPerimeter;whiteSpace=wrap;html=1;fixedSize=1;fillColor=#d5e8d4;strokeColor=#82b366;" vertex="1" parent="1">
          <mxGeometry x="435" y="710" width="120" height="30" as="geometry" />
        </mxCell>
        <mxCell id="fmsvRbr4pzbcuX7kDeb8-59" value="END" style="ellipse;whiteSpace=wrap;html=1;fillColor=#f8cecc;strokeColor=#b85450;" vertex="1" parent="1">
          <mxGeometry x="280" y="820" width="80" height="30" as="geometry" />
        </mxCell>
        <mxCell id="fmsvRbr4pzbcuX7kDeb8-67" style="edgeStyle=orthogonalEdgeStyle;rounded=0;orthogonalLoop=1;jettySize=auto;html=1;exitX=0.5;exitY=1;exitDx=0;exitDy=0;entryX=0.61;entryY=0.018;entryDx=0;entryDy=0;entryPerimeter=0;" edge="1" parent="1" source="fmsvRbr4pzbcuX7kDeb8-54" target="fmsvRbr4pzbcuX7kDeb8-56">
          <mxGeometry relative="1" as="geometry" />
        </mxCell>
        <mxCell id="fmsvRbr4pzbcuX7kDeb8-71" value="yes" style="text;html=1;align=center;verticalAlign=middle;whiteSpace=wrap;rounded=0;" vertex="1" parent="1">
          <mxGeometry x="240" y="480" width="60" height="30" as="geometry" />
        </mxCell>
        <mxCell id="fmsvRbr4pzbcuX7kDeb8-72" value="yes" style="text;html=1;align=center;verticalAlign=middle;whiteSpace=wrap;rounded=0;" vertex="1" parent="1">
          <mxGeometry x="140" y="660" width="60" height="30" as="geometry" />
        </mxCell>
        <mxCell id="fmsvRbr4pzbcuX7kDeb8-73" value="NO" style="text;html=1;align=center;verticalAlign=middle;whiteSpace=wrap;rounded=0;" vertex="1" parent="1">
          <mxGeometry x="240" y="590" width="60" height="30" as="geometry" />
        </mxCell>
        <mxCell id="fmsvRbr4pzbcuX7kDeb8-74" value="NO" style="text;html=1;align=center;verticalAlign=middle;whiteSpace=wrap;rounded=0;" vertex="1" parent="1">
          <mxGeometry x="375" y="480" width="60" height="30" as="geometry" />
        </mxCell>
        <mxCell id="fmsvRbr4pzbcuX7kDeb8-75" value="NO" style="text;html=1;align=center;verticalAlign=middle;whiteSpace=wrap;rounded=0;" vertex="1" parent="1">
          <mxGeometry x="345" y="590" width="60" height="30" as="geometry" />
        </mxCell>
        <mxCell id="fmsvRbr4pzbcuX7kDeb8-76" value="yes" style="text;html=1;align=center;verticalAlign=middle;whiteSpace=wrap;rounded=0;" vertex="1" parent="1">
          <mxGeometry x="450" y="660" width="60" height="30" as="geometry" />
        </mxCell>
      </root>
    </mxGraphModel>
  </diagram>
</mxfile>
